<svg height="300pt" preserveAspectRatio="xMidYMid meet" viewBox="0 0 300 300" width="300pt" xmlns="http://www.w3.org/2000/svg"><path d="m510 2478c-19-21-20-34-20-293v-272l26-24c25-23 30-24 190-24 216 0 207-8 214 188l5 142 139 3c105 2 141-1 148-10 4-7 8-356 8-775 0-744 0-763-19-773-11-5-64-10-119-10-90 0-100-2-120-23-19-21-22-35-22-118 0-87 2-97 23-117l23-22h515 516l21 23c19 21 22 35 22 118 0 87-2 97-23 117s-34 22-128 22c-68 0-109 4-117 12-9 9-12 194-12 772 0 419 4 767 8 774 7 9 43 12 148 10l139-3 5-142c7-196-2-188 214-188 160 0 165 1 190 24l26 24v272c0 271 0 272-23 293l-23 22h-967-966zm1960-293v-275h-175-175v170 170h-190-190v-830-830h140 140v-100-100h-520-520v100 100h140 140v830 830h-190-190v-170-170h-175-175v275 275h970 970z" transform="matrix(.1 0 0 -.1 0 300)"/></svg>